<svg xmlns="http://www.w3.org/2000/svg" class="ionicon" viewBox="0 0 512 512"><title>Logo FrontendMentor</title><path d="M256,32C132.29,32,32,132.29,32,256S132.29,480,256,480,480,379.71,480,256,379.71,32,256,32Zm-7.56,86.51a10.09,10.09,0,0,1,9.87-10.08h.19a10.08,10.08,0,0,1,10.08,10.08V309.88a10.07,10.07,0,1,1-20.14,0Zm44.77,285.05a208.66,208.66,0,0,1-202-156A10.06,10.06,0,0,1,101.15,235v-.06a10.06,10.06,0,0,1,9.55,7.5,188.53,188.53,0,0,0,182.51,141H294a10.08,10.08,0,0,1-.78,20.14ZM411,263.2a10.46,10.46,0,0,1-4.12-.9l-86.42-38.7a10.09,10.09,0,0,1,0-18.39l86.42-38.57a10.23,10.23,0,0,1,3.81-.87A10.06,10.06,0,0,1,415.08,185l-65.84,29.39,65.84,29.47A10.08,10.08,0,0,1,411,263.2Z"/></svg>