<svg id="Layer_4" data-name="Layer 4" xmlns="http://www.w3.org/2000/svg" viewBox="0 0 240 240"><path d="M141.22,170.2c4.79-.95,9.26-1.63,13.62-2.72,13.13-3.3,24.19-9.73,30.24-22.4a60,60,0,0,0,4.13-41.75,36.72,36.72,0,0,0-8-14.82,3.38,3.38,0,0,1-.78-3.69c2.59-8.58,1.86-17.06-1.28-25.35a3.49,3.49,0,0,0-2.64-1.72c-5.26-.12-10.14,1.58-14.77,3.85-4.06,2-7.9,4.41-11.9,6.52a4.86,4.86,0,0,1-3.09.49,107.93,107.93,0,0,0-51.77,0,5.2,5.2,0,0,1-3.53-.74C84.27,63.47,77,59.37,68.57,58c-.25,0-.51-.11-.77-.15-4.4-.63-4.85-.37-6.12,3.81a39.88,39.88,0,0,0-.31,23.93,2.76,2.76,0,0,1-.44,2.27c-9.87,11.37-11.79,24.76-9.68,39A69.78,69.78,0,0,0,55,141.7c5.58,14.39,17,22,31.42,25.76,4.45,1.15,9,1.85,13.81,2.82a26.22,26.22,0,0,0-6.47,13.5c-.1.57-1,1.19-1.59,1.44-11.74,4.52-23.14,2.59-30.36-9.38-3.41-5.65-8.11-9.82-14.78-11.16a13.52,13.52,0,0,0-5.15,0c-2.32.45-2.67,1.76-1.11,3.5a11.48,11.48,0,0,0,2.56,2.21c6,3.55,9.75,8.91,12.3,15.15,4.07,10,11.92,14.52,22.1,15.3,5.07.39,10.22-.28,15.61-.49,0,6.71.19,13.76-.07,20.79-.14,3.59-3.94,5.24-8.1,3.86a98.83,98.83,0,0,1-26.14-12.93c-33.15-23.4-49.89-55.46-48.08-96,2.25-50.44,39.2-91.87,89-101.44A110.11,110.11,0,0,1,227.47,94.6c14.42,54.69-16.93,112.54-70.65,130.37-5.47,1.81-8.62-.47-8.61-6.27q0-13.72.09-27.46C148.33,183.55,146.94,176.33,141.22,170.2ZM79.77,190.89c.68.53,1.44,1.57,2,1.49.9-.13,1.69-1,2.53-1.62l-2.28-2Zm-15.09-7.63c-.14-.07-1.18,1.33-1.09,1.43a10.15,10.15,0,0,0,2.5,2.17c.23.13,1-.66,2.22-1.5A30.63,30.63,0,0,0,64.68,183.26ZM70.9,189c.74.69,1.37,1.69,2.24,2,.55.18,1.44-.7,2.18-1.11l-2.23-2.55Zm17.27,1.06c.64.47,1.39,1.42,1.89,1.31a9.41,9.41,0,0,0,2.64-1.63l-2-2.18Zm-26.59-10.7A16.78,16.78,0,0,0,59.66,177c-.44.48-1.35,1.12-1.25,1.4a18.26,18.26,0,0,0,2,3.15C61.06,180.34,61.72,179.64,61.58,179.37Zm-7.43-6.83A7.66,7.66,0,0,0,56,174.37c.08.06,1.13-.86,1.07-1a26.86,26.86,0,0,0-1.94-2.77C54.58,171.66,54,172.33,54.15,172.54Z"/></svg>