<svg id="Layer_2" data-name="Layer 2" xmlns="http://www.w3.org/2000/svg" viewBox="0 0 240 240"><path d="M61.77,37.81c0,13.78-10.37,24.83-27,24.83h-.31c-16,0-26.41-11-26.41-24.83C8,23.69,18.71,13,35.05,13S61.47,23.69,61.77,37.81ZM10.85,226.05h47.8V82.27H10.85ZM175.94,78.9c-25.35,0-36.7,13.93-43.08,23.72v.48h-.31a2.46,2.46,0,0,0,.31-.48V82.27H85.08c.61,13.48,0,143.78,0,143.78h47.78v-80.3c0-4.34.31-8.56,1.58-11.66,3.46-8.55,11.33-17.49,24.51-17.49,17.32,0,24.23,13.17,24.23,32.52v76.93H231V143.6C231,99.45,207.39,78.9,175.94,78.9Z"/></svg>